# xmcd
#
# Track frame offsets:
#	150
#	13548
#	29698
#	39886
#	51515
#	61643
#	74529
#	92337
#	104805
#	114933
#	125736
#	138878
#	151991
#	164946
#	176949
#	186672
#	196400
#	207023
#	218621
#	229386
#	239956
#
# Disc length: 3374 seconds
#
# Revision: 0
# Processed by: cddbd v1.5.2PL0 Copyright (c) Steve Scherf et al.
# Submitted via: EasyCDDAExtractor 8.2.3.1
#
DISCID=410d2c15
DTITLE=Lynn Anderson - Rose Garden -71 and A Woman Lives For Love -71
DYEAR=1971
DGENRE=Country
TTITLE0=Rose Garden
TTITLE1=For The Good Times
TTITLE2=Another Lonely Night
TTITLE3=I Don't Wanna Play House
TTITLE4=Snowbird
TTITLE5=Your Sweet Love Lifted Me
TTITLE6=Sunday Morning Coming Down
TTITLE7=I Still Belong To You
TTITLE8=I Wish I Was A Little Boy Again
TTITLE9=It's Only Make Believe
TTITLE10=Nothing Between Us
TTITLE11=Nothing Between Us
TTITLE12=No Love At All
TTITLE13=A Woman Lives For Love
TTITLE14=Stay There 'Til I Get There
TTITLE15=I Found You Just In Time
TTITLE16=Good
TTITLE17=Heavenly Sunshine
TTITLE18=I'd Run A Mile To You
TTITLE19=Someday Soon
TTITLE20=Honey Come Back
EXTD=
EXTT0=
EXTT1=
EXTT2=
EXTT3=
EXTT4=
EXTT5=
EXTT6=
EXTT7=
EXTT8=
EXTT9=
EXTT10=
EXTT11=
EXTT12=
EXTT13=
EXTT14=
EXTT15=
EXTT16=
EXTT17=
EXTT18=
EXTT19=
EXTT20=
PLAYORDER=
